<svg data-v-423bf9ae="" xmlns="http://www.w3.org/2000/svg" viewBox="0 0 285.1428440638951 60" class="font"><!----><!----><!----><g data-v-423bf9ae="" id="f689eea7-6cf1-4e19-acde-3e40aea4667c" fill="white" transform="matrix(5.714285714285714,0,0,5.714285714285714,-6.4571414504732445,-23.54285553523472)"><path d="M8.31 11.59L8.31 11.59L8.31 11.59Q8.31 12.02 8.28 12.34L8.28 12.34L8.28 12.34Q8.26 12.67 8.20 12.95L8.20 12.95L8.20 12.95Q8.15 13.24 8.09 13.44L8.09 13.44L8.09 13.44Q8.03 13.64 7.89 13.81L7.89 13.81L7.89 13.81Q7.76 13.99 7.64 14.09L7.64 14.09L7.64 14.09Q7.51 14.20 7.28 14.28L7.28 14.28L7.28 14.28Q7.05 14.37 6.84 14.41L6.84 14.41L6.84 14.41Q6.63 14.45 6.28 14.48L6.28 14.48L6.28 14.48Q5.93 14.51 5.60 14.51L5.60 14.51L5.60 14.51Q5.28 14.52 4.79 14.52L4.79 14.52L1.13 14.52L1.13 4.33L5.00 4.33L5.00 4.33Q5.78 4.33 6.29 4.41L6.29 4.41L6.29 4.41Q6.79 4.49 7.19 4.70L7.19 4.70L7.19 4.70Q7.58 4.90 7.76 5.28L7.76 5.28L7.76 5.28Q7.94 5.65 7.94 6.23L7.94 6.23L7.95 6.97L7.95 6.97Q7.95 7.44 7.92 7.73L7.92 7.73L7.92 7.73Q7.88 8.03 7.80 8.26L7.80 8.26L7.80 8.26Q7.71 8.50 7.54 8.64L7.54 8.64L7.54 8.64Q7.37 8.78 7.13 8.87L7.13 8.87L7.13 8.87Q6.88 8.96 6.50 9.03L6.50 9.03L6.50 9.03Q6.97 9.08 7.30 9.24L7.30 9.24L7.30 9.24Q7.64 9.39 7.83 9.61L7.83 9.61L7.83 9.61Q8.03 9.83 8.13 10.17L8.13 10.17L8.13 10.17Q8.24 10.50 8.28 10.82L8.28 10.82L8.28 10.82Q8.31 11.14 8.31 11.59ZM6.60 7.76L6.60 6.68L6.60 6.68Q6.60 6.67 6.60 6.64L6.60 6.64L6.60 6.64Q6.60 6.35 6.60 6.23L6.60 6.23L6.60 6.23Q6.60 6.11 6.56 5.94L6.56 5.94L6.56 5.94Q6.52 5.76 6.48 5.71L6.48 5.71L6.48 5.71Q6.45 5.65 6.31 5.56L6.31 5.56L6.31 5.56Q6.18 5.47 6.05 5.45L6.05 5.45L6.05 5.45Q5.92 5.43 5.64 5.40L5.64 5.40L5.64 5.40Q5.37 5.37 5.09 5.37L5.09 5.37L5.09 5.37Q4.82 5.37 4.35 5.37L4.35 5.37L2.51 5.37L2.51 8.64L3.88 8.64L3.88 8.64Q4.78 8.64 5.33 8.59L5.33 8.59L5.33 8.59Q5.89 8.54 6.16 8.41L6.16 8.41L6.16 8.41Q6.43 8.29 6.51 8.14L6.51 8.14L6.51 8.14Q6.60 8.00 6.60 7.76L6.60 7.76ZM6.97 12.17L6.96 11.26L6.96 11.26Q6.95 10.45 6.90 10.23L6.90 10.23L6.90 10.23Q6.80 9.86 6.43 9.72L6.43 9.72L6.43 9.72Q5.96 9.54 4.35 9.54L4.35 9.54L4.35 9.54Q4.24 9.54 4.11 9.54L4.11 9.54L2.51 9.54L2.51 13.49L5.12 13.49L5.12 13.49Q5.91 13.49 6.32 13.35L6.32 13.35L6.32 13.35Q6.72 13.22 6.85 12.95L6.85 12.95L6.85 12.95Q6.98 12.69 6.97 12.17L6.97 12.17ZM13.42 6.85L13.42 6.85L13.36 7.99L13.36 7.99Q13.10 7.96 12.87 7.96L12.87 7.96L12.87 7.96Q12.39 7.96 12.09 8.05L12.09 8.05L12.09 8.05Q11.79 8.15 11.63 8.38L11.63 8.38L11.63 8.38Q11.48 8.61 11.43 8.91L11.43 8.91L11.43 8.91Q11.38 9.21 11.38 9.71L11.38 9.71L11.38 9.71Q11.38 9.99 11.40 10.53L11.40 10.53L11.40 10.53Q11.42 11.07 11.42 11.30L11.42 11.30L11.42 14.52L10.08 14.52L10.08 7.02L11.30 7.02L11.44 7.86L11.44 7.86Q11.65 7.37 12.08 7.10L12.08 7.10L12.08 7.10Q12.51 6.83 13.11 6.83L13.11 6.83L13.11 6.83Q13.26 6.83 13.42 6.85ZM16.39 7.02L16.39 14.52L15.05 14.52L15.05 7.02L16.39 7.02ZM15.05 4.12L16.39 4.12L16.39 5.30L15.05 5.30L15.05 4.12ZM21.52 13.57L21.52 13.57L21.49 14.53L21.49 14.53Q20.92 14.62 20.45 14.62L20.45 14.62L20.45 14.62Q19.95 14.62 19.63 14.51L19.63 14.51L19.63 14.51Q19.30 14.40 19.14 14.16L19.14 14.16L19.14 14.16Q18.98 13.92 18.92 13.63L18.92 13.63L18.92 13.63Q18.85 13.34 18.85 12.89L18.85 12.89L18.85 7.79L17.83 7.79L17.83 7.02L18.85 7.02L18.85 4.89L20.19 4.78L20.19 7.02L21.57 7.02L21.57 7.79L20.19 7.79L20.19 12.43L20.19 12.43Q20.19 13.17 20.27 13.39L20.27 13.39L20.27 13.39Q20.34 13.61 20.66 13.61L20.66 13.61L20.66 13.61Q20.97 13.61 21.52 13.57ZM29.16 10.66L29.16 10.66L29.16 10.66Q28.33 10.75 28.14 10.76L28.14 10.76L24.41 10.76L24.41 10.76Q24.42 11.75 24.47 12.93L24.47 12.93L24.47 12.93Q24.50 13.39 24.86 13.54L24.86 13.54L24.86 13.54Q25.22 13.69 26.26 13.69L26.26 13.69L26.26 13.69Q26.65 13.69 26.93 13.65L26.93 13.65L26.93 13.65Q27.21 13.62 27.38 13.55L27.38 13.55L27.38 13.55Q27.56 13.47 27.65 13.40L27.65 13.40L27.65 13.40Q27.75 13.32 27.80 13.17L27.80 13.17L27.80 13.17Q27.85 13.02 27.86 12.91L27.86 12.91L27.86 12.91Q27.88 12.80 27.89 12.59L27.89 12.59L27.89 12.59Q27.90 12.37 27.92 12.24L27.92 12.24L28.97 12.43L28.97 12.43Q28.96 12.91 28.90 13.24L28.90 13.24L28.90 13.24Q28.85 13.57 28.72 13.82L28.72 13.82L28.72 13.82Q28.59 14.08 28.41 14.22L28.41 14.22L28.41 14.22Q28.23 14.37 27.93 14.46L27.93 14.46L27.93 14.46Q27.63 14.56 27.27 14.59L27.27 14.59L27.27 14.59Q26.91 14.62 26.37 14.62L26.37 14.62L26.37 14.62Q25.69 14.62 25.18 14.54L25.18 14.54L25.18 14.54Q24.68 14.46 24.32 14.35L24.32 14.35L24.32 14.35Q23.96 14.23 23.73 13.97L23.73 13.97L23.73 13.97Q23.50 13.71 23.36 13.47L23.36 13.47L23.36 13.47Q23.23 13.23 23.17 12.76L23.17 12.76L23.17 12.76Q23.11 12.30 23.09 11.92L23.09 11.92L23.09 11.92Q23.07 11.54 23.07 10.87L23.07 10.87L23.07 10.87Q23.07 9.93 23.10 9.40L23.10 9.40L23.10 9.40Q23.12 8.87 23.23 8.34L23.23 8.34L23.23 8.34Q23.34 7.81 23.52 7.57L23.52 7.57L23.52 7.57Q23.71 7.33 24.07 7.13L24.07 7.13L24.07 7.13Q24.43 6.92 24.92 6.87L24.92 6.87L24.92 6.87Q25.42 6.81 26.17 6.81L26.17 6.81L26.17 6.81Q26.70 6.81 27.08 6.84L27.08 6.84L27.08 6.84Q27.47 6.87 27.79 6.97L27.79 6.97L27.79 6.97Q28.11 7.06 28.32 7.18L28.32 7.18L28.32 7.18Q28.53 7.31 28.69 7.55L28.69 7.55L28.69 7.55Q28.85 7.79 28.93 8.04L28.93 8.04L28.93 8.04Q29.02 8.30 29.07 8.72L29.07 8.72L29.07 8.72Q29.13 9.15 29.14 9.58L29.14 9.58L29.14 9.58Q29.16 10.01 29.16 10.66ZM24.42 10.04L24.42 10.04L27.81 10.04L27.81 10.04Q27.79 9.17 27.74 8.44L27.74 8.44L27.74 8.44Q27.71 8.03 27.38 7.89L27.38 7.89L27.38 7.89Q27.05 7.75 26.17 7.75L26.17 7.75L26.17 7.75Q25.19 7.75 24.93 7.85L24.93 7.85L24.93 7.85Q24.81 7.89 24.73 7.97L24.73 7.97L24.73 7.97Q24.64 8.06 24.59 8.22L24.59 8.22L24.59 8.22Q24.53 8.37 24.50 8.51L24.50 8.51L24.50 8.51Q24.47 8.65 24.46 8.89L24.46 8.89L24.46 8.89Q24.44 9.13 24.43 9.27L24.43 9.27L24.43 9.27Q24.42 9.40 24.42 9.67L24.42 9.67L24.42 9.67Q24.42 9.95 24.42 10.04ZM38.24 11.59L38.24 11.59L38.24 11.59Q38.23 12.02 38.21 12.34L38.21 12.34L38.21 12.34Q38.19 12.67 38.13 12.95L38.13 12.95L38.13 12.95Q38.08 13.24 38.01 13.44L38.01 13.44L38.01 13.44Q37.95 13.64 37.82 13.81L37.82 13.81L37.82 13.81Q37.69 13.99 37.56 14.09L37.56 14.09L37.56 14.09Q37.44 14.20 37.21 14.28L37.21 14.28L37.21 14.28Q36.98 14.37 36.77 14.41L36.77 14.41L36.77 14.41Q36.56 14.45 36.21 14.48L36.21 14.48L36.21 14.48Q35.85 14.51 35.53 14.51L35.53 14.51L35.53 14.51Q35.21 14.52 34.71 14.52L34.71 14.52L31.06 14.52L31.06 4.33L34.93 4.33L34.93 4.33Q35.70 4.33 36.21 4.41L36.21 4.41L36.21 4.41Q36.72 4.49 37.12 4.70L37.12 4.70L37.12 4.70Q37.51 4.90 37.69 5.28L37.69 5.28L37.69 5.28Q37.86 5.65 37.87 6.23L37.87 6.23L37.88 6.97L37.88 6.97Q37.88 7.44 37.84 7.73L37.84 7.73L37.84 7.73Q37.81 8.03 37.72 8.26L37.72 8.26L37.72 8.26Q37.64 8.50 37.47 8.64L37.47 8.64L37.47 8.64Q37.30 8.78 37.05 8.87L37.05 8.87L37.05 8.87Q36.81 8.96 36.43 9.03L36.43 9.03L36.43 9.03Q36.89 9.08 37.23 9.24L37.23 9.24L37.23 9.24Q37.56 9.39 37.76 9.61L37.76 9.61L37.76 9.61Q37.95 9.83 38.06 10.17L38.06 10.17L38.06 10.17Q38.17 10.50 38.21 10.82L38.21 10.82L38.21 10.82Q38.24 11.14 38.24 11.59ZM36.52 7.76L36.52 6.68L36.52 6.68Q36.52 6.67 36.52 6.64L36.52 6.64L36.52 6.64Q36.52 6.35 36.52 6.23L36.52 6.23L36.52 6.23Q36.52 6.11 36.49 5.94L36.49 5.94L36.49 5.94Q36.45 5.76 36.41 5.71L36.41 5.71L36.41 5.71Q36.37 5.65 36.24 5.56L36.24 5.56L36.24 5.56Q36.11 5.47 35.98 5.45L35.98 5.45L35.98 5.45Q35.85 5.43 35.57 5.40L35.57 5.40L35.57 5.40Q35.29 5.37 35.02 5.37L35.02 5.37L35.02 5.37Q34.75 5.37 34.28 5.37L34.28 5.37L32.44 5.37L32.44 8.64L33.81 8.64L33.81 8.64Q34.71 8.64 35.26 8.59L35.26 8.59L35.26 8.59Q35.81 8.54 36.08 8.41L36.08 8.41L36.08 8.41Q36.35 8.29 36.44 8.14L36.44 8.14L36.44 8.14Q36.52 8.00 36.52 7.76L36.52 7.76ZM36.90 12.17L36.89 11.26L36.89 11.26Q36.87 10.45 36.83 10.23L36.83 10.23L36.83 10.23Q36.73 9.86 36.35 9.72L36.35 9.72L36.35 9.72Q35.89 9.54 34.28 9.54L34.28 9.54L34.28 9.54Q34.17 9.54 34.04 9.54L34.04 9.54L32.44 9.54L32.44 13.49L35.05 13.49L35.05 13.49Q35.84 13.49 36.24 13.35L36.24 13.35L36.24 13.35Q36.65 13.22 36.78 12.95L36.78 12.95L36.78 12.95Q36.91 12.69 36.90 12.17L36.90 12.17ZM42.96 13.68L42.96 13.68L42.96 13.68Q43.93 13.66 44.31 13.54L44.31 13.54L44.31 13.54Q44.69 13.41 44.69 13.05L44.69 13.05L44.69 13.05Q44.77 12.07 44.77 10.79L44.77 10.79L44.77 10.79Q44.77 10.36 44.73 9.57L44.73 9.57L44.73 9.57Q44.70 8.78 44.70 8.40L44.70 8.40L44.70 8.40Q44.70 8.29 44.66 8.19L44.66 8.19L44.66 8.19Q44.63 8.09 44.54 8.03L44.54 8.03L44.54 8.03Q44.45 7.96 44.37 7.92L44.37 7.92L44.37 7.92Q44.28 7.87 44.13 7.84L44.13 7.84L44.13 7.84Q43.98 7.81 43.87 7.79L43.87 7.79L43.87 7.79Q43.76 7.77 43.57 7.77L43.57 7.77L43.57 7.77Q43.37 7.76 43.27 7.76L43.27 7.76L43.27 7.76Q43.16 7.76 42.96 7.76L42.96 7.76L42.96 7.76Q42.75 7.76 42.65 7.76L42.65 7.76L42.65 7.76Q42.54 7.76 42.35 7.77L42.35 7.77L42.35 7.77Q42.15 7.77 42.04 7.79L42.04 7.79L42.04 7.79Q41.94 7.81 41.78 7.84L41.78 7.84L41.78 7.84Q41.63 7.87 41.55 7.92L41.55 7.92L41.55 7.92Q41.46 7.96 41.37 8.03L41.37 8.03L41.37 8.03Q41.29 8.09 41.25 8.19L41.25 8.19L41.25 8.19Q41.21 8.29 41.21 8.40L41.21 8.40L41.21 8.40Q41.21 8.78 41.18 9.57L41.18 9.57L41.18 9.57Q41.15 10.36 41.15 10.79L41.15 10.79L41.15 10.79Q41.15 12.07 41.22 13.05L41.22 13.05L41.22 13.05Q41.22 13.41 41.62 13.55L41.62 13.55L41.62 13.55Q42.02 13.68 42.96 13.68ZM42.95 14.62L42.95 14.62L42.95 14.62Q42.19 14.62 41.69 14.56L41.69 14.56L41.69 14.56Q41.18 14.50 40.81 14.29L40.81 14.29L40.81 14.29Q40.45 14.08 40.26 13.85L40.26 13.85L40.26 13.85Q40.07 13.61 39.96 13.10L39.96 13.10L39.96 13.10Q39.85 12.59 39.82 12.09L39.82 12.09L39.82 12.09Q39.80 11.59 39.80 10.71L39.80 10.71L39.80 10.71Q39.80 10.04 39.82 9.60L39.82 9.60L39.82 9.60Q39.83 9.15 39.89 8.73L39.89 8.73L39.89 8.73Q39.96 8.30 40.05 8.04L40.05 8.04L40.05 8.04Q40.14 7.77 40.31 7.54L40.31 7.54L40.31 7.54Q40.49 7.30 40.71 7.18L40.71 7.18L40.71 7.18Q40.93 7.05 41.27 6.96L41.27 6.96L41.27 6.96Q41.60 6.87 42.00 6.84L42.00 6.84L42.00 6.84Q42.40 6.81 42.96 6.81L42.96 6.81L42.96 6.81Q43.51 6.81 43.91 6.84L43.91 6.84L43.91 6.84Q44.31 6.87 44.65 6.96L44.65 6.96L44.65 6.96Q44.99 7.05 45.21 7.18L45.21 7.18L45.21 7.18Q45.42 7.30 45.60 7.54L45.60 7.54L45.60 7.54Q45.77 7.77 45.87 8.04L45.87 8.04L45.87 8.04Q45.96 8.30 46.02 8.73L46.02 8.73L46.02 8.73Q46.08 9.15 46.10 9.60L46.10 9.60L46.10 9.60Q46.12 10.04 46.12 10.71L46.12 10.71L46.12 10.71Q46.12 11.59 46.09 12.09L46.09 12.09L46.09 12.09Q46.07 12.59 45.96 13.10L45.96 13.10L45.96 13.10Q45.85 13.61 45.65 13.85L45.65 13.85L45.65 13.85Q45.46 14.09 45.09 14.29L45.09 14.29L45.09 14.29Q44.73 14.50 44.22 14.56L44.22 14.56L44.22 14.56Q43.72 14.62 42.95 14.62ZM50.98 13.57L50.98 13.57L50.95 14.53L50.95 14.53Q50.37 14.62 49.91 14.62L49.91 14.62L49.91 14.62Q49.41 14.62 49.09 14.51L49.09 14.51L49.09 14.51Q48.76 14.40 48.60 14.16L48.60 14.16L48.60 14.16Q48.43 13.92 48.37 13.63L48.37 13.63L48.37 13.63Q48.31 13.34 48.31 12.89L48.31 12.89L48.31 7.79L47.29 7.79L47.29 7.02L48.31 7.02L48.31 4.89L49.65 4.78L49.65 7.02L51.03 7.02L51.03 7.79L49.65 7.79L49.65 12.43L49.65 12.43Q49.65 13.17 49.72 13.39L49.72 13.39L49.72 13.39Q49.79 13.61 50.11 13.61L50.11 13.61L50.11 13.61Q50.43 13.61 50.98 13.57Z"></path></g><!----><!----></svg>